<?xml version="1.0" standalone="no"?>
<!DOCTYPE svg PUBLIC "-//W3C//DTD SVG 20010904//EN"
 "http://www.w3.org/TR/2001/REC-SVG-20010904/DTD/svg10.dtd">
<svg version="1.0" xmlns="http://www.w3.org/2000/svg"
 width="128.000000pt" height="128.000000pt" viewBox="0 0 128.000000 128.000000"
 preserveAspectRatio="xMidYMid meet">

<g transform="translate(0.000000,128.000000) scale(0.100000,-0.100000)"
fill="#000000" stroke="none">
<path d="M300 1064 c-162 -23 -200 -37 -200 -71 0 -7 -5 -13 -10 -13 -6 0 -19
-9 -30 -20 -19 -19 -20 -33 -20 -400 0 -468 -13 -433 152 -404 64 11 132 15
215 12 l121 -4 30 -32 c26 -28 36 -32 82 -32 46 0 56 4 82 32 30 32 30 32 148
36 83 3 149 -1 225 -13 l108 -18 19 23 c17 21 18 49 18 401 0 366 -1 380 -20
399 -11 11 -24 20 -30 20 -5 0 -10 6 -10 13 0 58 -249 94 -443 64 -84 -13
-109 -13 -190 -1 -86 13 -188 16 -247 8z m232 -45 l88 -12 0 -369 0 -369 -52
8 c-73 11 -324 8 -375 -4 -23 -6 -44 -8 -48 -5 -3 3 -5 167 -5 364 l0 358 26
10 c70 27 237 35 366 19z m553 -11 l50 -13 3 -355 c1 -195 0 -360 -2 -367 -4
-8 -16 -8 -48 -1 -52 13 -302 16 -375 5 l-53 -8 0 370 0 369 73 10 c87 13 283
7 352 -10z m-977 -765 c18 -18 48 -20 118 -8 98 18 246 18 342 1 58 -10 86
-10 145 0 96 17 243 17 342 -1 99 -18 91 -18 109 1 14 13 16 60 16 360 0 228
3 343 10 339 13 -8 14 -742 1 -749 -5 -4 -33 -1 -63 6 -57 14 -356 18 -398 6
-14 -4 -29 -17 -35 -30 -8 -19 -18 -23 -55 -23 -37 0 -47 4 -55 23 -5 13 -21
26 -35 30 -42 12 -341 8 -398 -6 -30 -7 -58 -10 -63 -6 -11 6 -12 737 -1 748
4 4 9 -149 12 -341 3 -191 7 -349 8 -350z"/>
<path d="M290 920 c-73 -11 -113 -27 -107 -43 5 -14 9 -13 126 3 64 8 101 8
155 -1 100 -16 111 -16 111 1 0 33 -175 57 -285 40z"/>
<path d="M290 800 c-73 -11 -113 -27 -107 -43 5 -14 9 -13 126 3 64 8 101 8
155 -1 100 -16 111 -16 111 1 0 33 -175 57 -285 40z"/>
<path d="M290 680 c-73 -11 -113 -27 -107 -43 5 -14 9 -13 126 3 64 8 101 8
155 -1 100 -16 111 -16 111 1 0 33 -175 57 -285 40z"/>
<path d="M290 560 c-73 -11 -113 -27 -107 -43 5 -14 9 -13 126 3 64 8 101 8
155 -1 100 -16 111 -16 111 1 0 33 -175 57 -285 40z"/>
<path d="M290 440 c-73 -11 -113 -27 -107 -43 5 -14 9 -13 126 3 64 8 101 8
155 -1 100 -16 111 -16 111 1 0 33 -175 57 -285 40z"/>
<path d="M810 920 c-73 -11 -113 -27 -107 -43 5 -14 9 -13 126 3 64 8 101 8
155 -1 100 -16 111 -16 111 1 0 33 -175 57 -285 40z"/>
<path d="M810 800 c-73 -11 -113 -27 -107 -43 5 -14 9 -13 126 3 64 8 101 8
155 -1 100 -16 111 -16 111 1 0 33 -175 57 -285 40z"/>
<path d="M810 680 c-73 -11 -113 -27 -107 -43 5 -14 9 -13 126 3 64 8 101 8
155 -1 100 -16 111 -16 111 1 0 33 -175 57 -285 40z"/>
<path d="M810 560 c-73 -11 -113 -27 -107 -43 5 -14 9 -13 126 3 64 8 101 8
155 -1 100 -16 111 -16 111 1 0 33 -175 57 -285 40z"/>
<path d="M810 440 c-73 -11 -113 -27 -107 -43 5 -14 9 -13 126 3 64 8 101 8
155 -1 100 -16 111 -16 111 1 0 33 -175 57 -285 40z"/>
</g>
</svg>
