<?xml version="1.0" standalone="no"?>
<!DOCTYPE svg PUBLIC "-//W3C//DTD SVG 20010904//EN"
 "http://www.w3.org/TR/2001/REC-SVG-20010904/DTD/svg10.dtd">
<svg version="1.0" xmlns="http://www.w3.org/2000/svg"
 width="128.000000pt" height="128.000000pt" viewBox="0 0 128.000000 128.000000"
 preserveAspectRatio="xMidYMid meet">

<g transform="translate(0.000000,128.000000) scale(0.100000,-0.100000)"
fill="#000000" stroke="none">
<path d="M1025 1251 c-16 -10 -159 -149 -316 -307 l-286 -289 -37 -132 c-39
-143 -43 -171 -24 -178 7 -3 78 13 157 34 l145 40 293 293 c161 161 300 307
308 324 32 67 4 142 -73 201 -52 40 -118 45 -167 14z m148 -89 c45 -43 49 -82
13 -127 l-25 -30 -71 70 c-39 38 -69 77 -68 85 4 21 68 51 93 44 11 -3 37 -22
58 -42z m-290 -434 l-233 -233 -75 75 -75 75 232 232 233 233 75 -75 75 -75
-232 -232z m-303 -259 c0 -7 -59 -27 -131 -44 l-27 -7 19 69 c10 37 21 74 24
82 4 10 21 -1 60 -39 30 -30 55 -58 55 -61z"/>
<path d="M94 1136 c-17 -8 -44 -31 -60 -52 l-29 -37 -3 -456 -2 -456 22 -45
c14 -26 37 -53 58 -65 34 -19 51 -20 525 -20 472 0 491 1 524 20 72 43 76 55
76 258 l0 182 -25 0 -25 0 -5 -172 c-5 -172 -5 -173 -33 -200 l-27 -28 -458
-3 c-514 -3 -524 -2 -555 58 -16 32 -17 71 -15 472 l3 438 28 27 c27 28 28 28
200 33 l172 5 0 25 0 25 -170 2 c-126 2 -178 -1 -201 -11z"/>
</g>
</svg>
